<?xml version="1.0" encoding="UTF-8" standalone="no"?>
<svg
   xmlns:dc="http://purl.org/dc/elements/1.1/"
   xmlns:cc="http://creativecommons.org/ns#"
   xmlns:rdf="http://www.w3.org/1999/02/22-rdf-syntax-ns#"
   xmlns:svg="http://www.w3.org/2000/svg"
   xmlns="http://www.w3.org/2000/svg"
   xmlns:sodipodi="http://sodipodi.sourceforge.net/DTD/sodipodi-0.dtd"
   xmlns:inkscape="http://www.inkscape.org/namespaces/inkscape"
   width="1920"
   height="750"
   viewBox="0 0 507.99935 198.43753"
   version="1.1"
   id="svg8"
   inkscape:version="1.0.2 (e86c870879, 2021-01-15)"
   sodipodi:docname="p0l1t1c1an_logo.svg"
   inkscape:export-filename="/home/p0l1t1c1an/p0l1t1c1an_logo.png"
   inkscape:export-xdpi="96"
   inkscape:export-ydpi="96">
  <defs
     id="defs2">
    <inkscape:path-effect
       effect="fillet_chamfer"
       id="path-effect927"
       is_visible="true"
       lpeversion="1"
       satellites_param="IC,0,0,1,0,5.0270833,0,1 @ IC,0,0,1,0,0,0,1 @ IC,0,0,1,0,5.0270833,0,1 @ IC,0,0,1,0,5.0270833,0,1"
       unit="px"
       method="auto"
       mode="IC"
       radius="19"
       chamfer_steps="1"
       flexible="false"
       use_knot_distance="true"
       apply_no_radius="true"
       apply_with_radius="true"
       only_selected="false"
       hide_knots="false" />
    <inkscape:path-effect
       effect="fillet_chamfer"
       id="path-effect904"
       is_visible="true"
       lpeversion="1"
       satellites_param="IC,0,0,1,0,5.0270833,0,1 @ IC,0,0,1,0,0,0,1 @ IC,0,0,1,0,0,0,1 @ IC,0,0,1,0,5.0270833,0,1"
       unit="px"
       method="auto"
       mode="IC"
       radius="19"
       chamfer_steps="1"
       flexible="false"
       use_knot_distance="true"
       apply_no_radius="true"
       apply_with_radius="true"
       only_selected="false"
       hide_knots="false" />
  </defs>
  <sodipodi:namedview
     id="base"
     pagecolor="#f5f5f5"
     bordercolor="#666666"
     borderopacity="1.0"
     inkscape:pageopacity="0.82352941"
     inkscape:pageshadow="2"
     inkscape:zoom="0.5"
     inkscape:cx="675.18794"
     inkscape:cy="375.90771"
     inkscape:document-units="px"
     inkscape:current-layer="layer1"
     inkscape:document-rotation="0"
     showgrid="false"
     units="px"
     inkscape:window-width="1908"
     inkscape:window-height="1041"
     inkscape:window-x="6"
     inkscape:window-y="33"
     inkscape:window-maximized="0" />
  <metadata
     id="metadata5">
    <rdf:RDF>
      <cc:Work
         rdf:about="">
        <dc:format>image/svg+xml</dc:format>
        <dc:type
           rdf:resource="http://purl.org/dc/dcmitype/StillImage" />
        <dc:title></dc:title>
      </cc:Work>
    </rdf:RDF>
  </metadata>
  <g
     inkscape:label="Layer 1"
     inkscape:groupmode="layer"
     id="layer1">
    <rect
       style="fill:#294289;stroke:#294289;stroke-width:2.03933"
       id="rect110"
       width="505.96072"
       height="196.39821"
       x="1.0192965"
       y="1.019666" />
    <g
       aria-label="P0l1t1c1an"
       id="text12"
       style="font-style:normal;font-weight:normal;font-size:10.5833px;line-height:1.25;font-family:sans-serif;fill:#000000;fill-opacity:1;stroke:none;stroke-width:0.265;stroke-miterlimit:4;stroke-dasharray:none"
       transform="matrix(1.2992951,0,0,1.2992951,58.30276,-2.126145)">
      <path
         d="m 4.999781,72.376709 v -0.705556 h 2.4694461 q 1.6933344,0 2.4694461,-0.846667 0.7761118,-0.917223 0.7761118,-3.52778 V 26.797789 q 0,-2.39889 -0.7761118,-3.245557 Q 9.2331171,22.705564 7.7514495,22.705564 H 4.999781 v -0.705556 h 20.955014 q 9.736673,0 14.322787,3.810003 4.586115,3.739447 4.586115,11.218341 0,4.586114 -1.975557,8.325561 -1.975557,3.668891 -6.491116,5.856115 -4.445003,2.116668 -11.853341,2.116668 h -1.340556 v 14.322788 q 0,2.39889 0.705556,3.245557 0.705556,0.776112 2.187223,0.776112 h 4.162781 v 0.705556 z M 23.203127,52.62114 h 0.846667 q 2.963335,0 4.65667,-1.411112 1.76389,-1.481668 2.469446,-4.797781 0.705556,-3.386669 0.705556,-9.172228 0,-5.503337 -0.635001,-8.678339 -0.635,-3.175003 -2.187223,-4.515559 -1.481668,-1.340557 -4.092225,-1.340557 h -1.76389 z"
         style="font-style:normal;font-variant:normal;font-weight:900;font-stretch:condensed;font-size:70.5556px;font-family:'Noto Serif Display';-inkscape-font-specification:'Noto Serif Display Heavy Condensed';fill:#f2f2f2;stroke-width:0.265;stroke-miterlimit:4;stroke-dasharray:none"
         id="path1006" />
      <path
         d="m 58.784217,72.923515 q -4.702531,0 -7.381881,-2.460627 -2.679349,-2.515308 -3.772961,-6.999117 -1.093612,-4.538489 -1.093612,-10.717397 0,-6.069547 1.093612,-10.553356 1.093612,-4.483809 3.772961,-6.944436 2.67935,-2.460627 7.436562,-2.460627 4.483809,0 7.163158,2.460627 2.67935,2.405946 3.827642,6.944436 1.202974,4.483809 1.202974,10.608036 0,6.069547 -1.202974,10.608037 -1.148292,4.538489 -3.882322,7.053797 -2.679349,2.460627 -7.163159,2.460627 z m 0,-0.546806 q 0.820209,0 1.367015,-0.710848 0.546806,-0.710848 0.87489,-2.73403 0.382764,-2.023182 0.492125,-5.905504 0.164042,-3.882323 0.164042,-10.225273 0,-6.342949 -0.164042,-10.170591 -0.109361,-3.882323 -0.437444,-5.850824 -0.328084,-2.023182 -0.87489,-2.73403 -0.546806,-0.710848 -1.367015,-0.710848 -0.87489,0 -1.476376,0.710848 -0.546806,0.710848 -0.92957,2.73403 -0.328084,1.968501 -0.492126,5.850824 -0.109361,3.827642 -0.109361,10.170591 0,6.34295 0.109361,10.225273 0.164042,3.882322 0.492126,5.905504 0.382764,2.023182 0.92957,2.73403 0.601486,0.710848 1.421695,0.710848 z"
         style="font-style:normal;font-variant:normal;font-weight:900;font-stretch:condensed;font-size:54.6806px;font-family:'Noto Serif Display';-inkscape-font-specification:'Noto Serif Display Heavy Condensed';fill:#f2f2f2;stroke-width:0.265;stroke-miterlimit:4;stroke-dasharray:none"
         id="path1008" />
      <path
         d="m 73.493282,72.376709 v -0.546806 h 0.601487 q 1.312334,0 2.132543,-0.820209 0.87489,-0.820209 0.87489,-3.062114 V 34.537734 q 0,-1.421695 -0.601487,-2.077862 Q 75.899229,31.803704 75.1337,31.584982 74.422852,31.36626 74.094769,31.36626 H 73.493282 V 30.819454 H 86.507265 V 67.94758 q 0,2.241905 0.87489,3.062114 0.874889,0.820209 2.187223,0.820209 h 0.492126 v 0.546806 z"
         style="font-style:normal;font-variant:normal;font-weight:900;font-stretch:condensed;font-size:54.6806px;font-family:'Noto Serif Display';-inkscape-font-specification:'Noto Serif Display Heavy Condensed';fill:#f2f2f2;stroke-width:0.265;stroke-miterlimit:4;stroke-dasharray:none"
         id="path1010" />
      <path
         d="m 95.037398,72.376709 v -0.546806 h 4.265087 q 1.257655,0 1.859145,-0.765528 0.65616,-0.765529 0.65616,-2.73403 V 38.310696 q -2.187222,3.390197 -3.554237,4.811892 -1.312334,1.367015 -2.734029,1.367015 -1.312335,0 -2.187224,-0.98425 -0.87489,-0.984251 -0.87489,-2.952753 2.73403,0 4.53849,-0.492125 1.85914,-0.492126 3.44488,-1.695099 1.64042,-1.202973 3.6636,-3.444877 l 1.64042,-1.80446 h 4.97593 v 35.214306 q 0,1.531056 0.49213,2.515307 0.49212,0.984251 2.02318,0.984251 h 3.39019 v 0.546806 z"
         style="font-style:normal;font-variant:normal;font-weight:900;font-stretch:condensed;font-size:54.6806px;font-family:'Noto Serif Display';-inkscape-font-specification:'Noto Serif Display Heavy Condensed';fill:#f2f2f2;stroke-width:0.265;stroke-miterlimit:4;stroke-dasharray:none"
         id="path1012" />
      <path
         d="m 131.39998,72.923515 q -3.71828,0 -5.96018,-1.913821 -2.18723,-1.913821 -2.18723,-6.780394 V 43.614714 h -3.55424 v -0.546806 q 4.70253,0 7.70997,-1.476376 3.44487,-1.74978 4.75721,-5.304018 h 0.5468 v 6.780394 h 6.06955 v 0.546806 h -6.06955 v 23.239254 q 0,4.647851 3.22616,4.647851 1.36702,0 3.28084,-0.710847 v 0.546806 q -0.87489,0.437444 -2.8434,1.038931 -1.9685,0.546806 -4.97593,0.546806 z"
         style="font-style:normal;font-variant:normal;font-weight:900;font-stretch:condensed;font-size:54.6806px;font-family:'Noto Serif Display';-inkscape-font-specification:'Noto Serif Display Heavy Condensed';fill:#f2f2f2;stroke-width:0.265;stroke-miterlimit:4;stroke-dasharray:none"
         id="path1014" />
      <path
         d="m 144.08586,72.376709 v -0.546806 h 4.26509 q 1.25765,0 1.85914,-0.765528 0.65616,-0.765529 0.65616,-2.73403 V 38.310696 q -2.18722,3.390197 -3.55423,4.811892 -1.31234,1.367015 -2.73403,1.367015 -1.31234,0 -2.18723,-0.98425 -0.87489,-0.984251 -0.87489,-2.952753 2.73403,0 4.53849,-0.492125 1.85914,-0.492126 3.44488,-1.695099 1.64042,-1.202973 3.6636,-3.444877 l 1.64042,-1.80446 h 4.97593 v 35.214306 q 0,1.531056 0.49213,2.515307 0.49212,0.984251 2.02318,0.984251 h 3.3902 v 0.546806 z"
         style="font-style:normal;font-variant:normal;font-weight:900;font-stretch:condensed;font-size:54.6806px;font-family:'Noto Serif Display';-inkscape-font-specification:'Noto Serif Display Heavy Condensed';fill:#f2f2f2;stroke-width:0.265;stroke-miterlimit:4;stroke-dasharray:none"
         id="path1016" />
      <path
         d="m 182.36226,72.923515 q -3.88232,0 -6.72571,-1.367015 -2.84339,-1.421696 -4.42913,-4.702532 -1.58574,-3.335516 -1.58574,-9.022298 0,-5.905505 1.64042,-9.295702 1.64042,-3.390197 4.53849,-4.811893 2.89807,-1.421696 6.72572,-1.421696 5.46805,0 7.81932,1.74978 2.35127,1.749779 2.35127,4.265086 0,0.984251 -0.54681,2.132544 -0.49212,1.148292 -2.18722,1.968501 -1.64042,0.820209 -4.97594,0.820209 0,-4.155725 -0.2734,-6.39763 -0.2734,-2.241904 -0.87489,-3.116794 -0.54681,-0.87489 -1.58574,-0.87489 -1.25765,0 -1.91382,1.312335 -0.65617,1.257654 -0.92957,4.53849 -0.2734,3.226155 -0.2734,9.076979 0,5.522741 0.49212,8.694215 0.49213,3.116794 1.64042,4.483809 1.14829,1.312335 3.22616,1.312335 2.18722,0 3.82764,-1.80446 1.64042,-1.85914 2.07786,-6.671033 1.09361,0.218722 1.64042,1.093612 0.54681,0.820209 0.54681,1.913821 0,1.257654 -0.92957,2.679349 -0.87489,1.421696 -3.1168,2.460627 -2.18722,0.984251 -6.17891,0.984251 z"
         style="font-style:normal;font-variant:normal;font-weight:900;font-stretch:condensed;font-size:54.6806px;font-family:'Noto Serif Display';-inkscape-font-specification:'Noto Serif Display Heavy Condensed';fill:#f2f2f2;stroke-width:0.265;stroke-miterlimit:4;stroke-dasharray:none"
         id="path1018" />
      <path
         d="m 198.38359,72.376709 v -0.546806 h 4.26509 q 1.25765,0 1.85914,-0.765528 0.65616,-0.765529 0.65616,-2.73403 V 38.310696 q -2.18722,3.390197 -3.55424,4.811892 -1.31233,1.367015 -2.73403,1.367015 -1.31233,0 -2.18722,-0.98425 -0.87489,-0.984251 -0.87489,-2.952753 2.73403,0 4.53849,-0.492125 1.85914,-0.492126 3.44488,-1.695099 1.64042,-1.202973 3.6636,-3.444877 l 1.64042,-1.80446 h 4.97593 v 35.214306 q 0,1.531056 0.49213,2.515307 0.49212,0.984251 2.02318,0.984251 h 3.3902 v 0.546806 z"
         style="font-style:normal;font-variant:normal;font-weight:900;font-stretch:condensed;font-size:54.6806px;font-family:'Noto Serif Display';-inkscape-font-specification:'Noto Serif Display Heavy Condensed';fill:#f2f2f2;stroke-width:0.265;stroke-miterlimit:4;stroke-dasharray:none"
         id="path1020" />
      <path
         d="m 231.73874,72.923515 q -3.28084,0 -5.57742,-2.077863 -2.24191,-2.132543 -2.24191,-6.288269 0,-7.928687 10.66272,-8.366131 l 3.937,-0.164042 v -7.163159 q 0,-3.444877 -0.5468,-4.702531 -0.49213,-1.312335 -1.85914,-1.312335 -1.53106,0 -2.07787,1.913821 -0.49212,1.913821 -0.49212,6.999117 -3.82764,0 -5.74146,-0.87489 -1.85914,-0.874889 -1.85914,-2.898071 0,-1.968502 1.47637,-3.226156 1.53106,-1.257653 3.99169,-1.85914 2.46062,-0.601487 5.41337,-0.601487 5.57743,0 8.36614,2.077863 2.78871,2.023182 2.78871,7.163159 v 16.45886 q 0,2.187224 0.60148,3.007433 0.60149,0.820209 2.24191,0.820209 h 0.21872 v 0.546806 h -12.46718 v -4.210406 h -0.10936 q -0.82021,2.73403 -2.56999,3.772961 -1.74977,0.984251 -4.15572,0.984251 z m 3.77296,-1.968502 q 1.36702,0 2.18722,-2.187224 0.82021,-2.187224 0.82021,-5.194656 v -6.999117 l -1.47637,0.109361 q -2.02319,0.164042 -2.78871,1.85914 -0.71085,1.695099 -0.71085,5.577422 0,4.046364 0.43744,5.468059 0.49213,1.367015 1.53106,1.367015 z"
         style="font-style:normal;font-variant:normal;font-weight:900;font-stretch:condensed;font-size:54.6806px;font-family:'Noto Serif Display';-inkscape-font-specification:'Noto Serif Display Heavy Condensed';fill:#f2f2f2;stroke-width:0.265;stroke-miterlimit:4;stroke-dasharray:none"
         id="path1022" />
      <path
         d="m 252.90008,72.376709 v -0.546806 h 0.21872 q 1.80446,0 2.51531,-0.765528 0.76553,-0.765529 0.76553,-2.952753 v -20.99735 q 0,-2.077863 -0.71085,-2.78871 -0.65617,-0.710848 -2.35127,-0.710848 h -0.21872 v -0.546806 h 12.6859 v 4.59317 h 0.10936 q 0.60149,-2.515307 2.35127,-3.937003 1.80446,-1.421696 4.97593,-1.421696 3.82764,0 5.79614,2.515308 2.02319,2.460627 2.02319,7.983367 v 15.201207 q 0,2.241905 0.60148,3.062114 0.60149,0.765528 2.24191,0.765528 h 0.21872 v 0.546806 H 271.65552 V 51.762123 q 0,-3.991684 -0.5468,-5.577421 -0.49213,-1.640418 -1.85914,-1.640418 -1.6951,0 -2.56999,2.405946 -0.82021,2.351266 -0.82021,6.34295 v 14.982484 q 0,2.077863 0.65617,2.843391 0.71084,0.710848 2.40594,0.710848 h 0.16405 v 0.546806 z"
         style="font-style:normal;font-variant:normal;font-weight:900;font-stretch:condensed;font-size:54.6806px;font-family:'Noto Serif Display';-inkscape-font-specification:'Noto Serif Display Heavy Condensed';fill:#f2f2f2;stroke-width:0.265;stroke-miterlimit:4;stroke-dasharray:none"
         id="path1024" />
    </g>
    <g
       aria-label="Boicken 84"
       id="text16"
       style="font-style:normal;font-weight:normal;font-size:10.5833px;line-height:1.25;font-family:sans-serif;fill:#000000;fill-opacity:1;stroke:none;stroke-width:0.264583"
       transform="matrix(1.2992951,0,0,1.2992951,58.30276,-2.126145)">
      <path
         d="m 3.9997808,126.08228 v -0.70555 h 3.2455578 q 2.5400017,0 2.5400017,-4.09223 V 80.432808 q 0,-2.469446 -0.9172229,-3.245558 Q 7.9508946,76.411138 7.1042273,76.411138 H 3.9997808 V 75.705582 H 24.460906 q 9.595562,0 14.534454,2.89278 4.938892,2.89278 4.938892,9.383895 0,5.009448 -3.598336,7.972784 -3.598335,2.892779 -11.359452,3.386668 v 0.141112 q 8.748895,0.493889 12.770564,3.668889 4.02167,3.175 4.02167,9.10167 0,6.91445 -4.797781,10.37168 -4.797781,3.45722 -14.60501,3.45722 z M 22.203126,99.271154 h 1.693335 q 3.739447,0 5.362226,-2.681113 1.693334,-2.751669 1.693334,-8.890006 0,-6.067782 -1.693334,-8.678339 -1.693335,-2.610558 -5.432782,-2.610558 h -1.622779 z m 0,26.105576 h 3.175003 q 3.739446,0 5.362225,-2.96334 1.693335,-2.96333 1.693335,-9.59556 0,-6.77334 -1.622779,-9.80723 -1.622779,-3.03389 -5.29167,-3.03389 h -3.316114 z"
         style="font-style:normal;font-variant:normal;font-weight:900;font-stretch:condensed;font-size:70.5556px;font-family:'Noto Serif Display';-inkscape-font-specification:'Noto Serif Display Heavy Condensed';fill:#f2f2f2;stroke-width:0.264583"
         id="path1027" />
      <path
         d="m 62.968369,126.62909 q -6.288269,0 -9.842508,-3.77296 -3.554239,-3.82764 -3.554239,-11.53761 0,-7.70996 3.444878,-11.482925 3.444878,-3.827642 10.115911,-3.827642 6.233588,0 9.787827,3.827642 3.60892,3.772965 3.60892,11.482925 0,7.70997 -3.444878,11.53761 -3.444878,3.77296 -10.115911,3.77296 z m 0.109361,-0.54681 q 1.476376,0 2.296585,-1.25765 0.87489,-1.31234 1.202973,-4.48381 0.382765,-3.22616 0.382765,-9.0223 0,-5.79614 -0.382765,-8.96762 -0.328083,-3.226152 -1.202973,-4.483806 -0.820209,-1.312335 -2.351265,-1.312335 -1.476377,0 -2.296586,1.312335 -0.820209,1.257654 -1.202973,4.483806 -0.328083,3.17148 -0.328083,8.96762 0,5.79614 0.328083,9.0223 0.382764,3.17147 1.202973,4.48381 0.87489,1.25765 2.351266,1.25765 z"
         style="font-size:54.6806px;fill:#f2f2f2"
         id="path1029" />
      <path
         d="m 87.137122,92.01627 q -1.859141,0 -3.116795,-0.984251 -1.257653,-1.038931 -1.257653,-3.116794 0,-2.132544 1.257653,-3.116794 1.257654,-0.984251 3.116795,-0.984251 1.804459,0 3.116794,0.984251 1.367015,0.98425 1.367015,3.116794 0,2.077863 -1.367015,3.116794 -1.312335,0.984251 -3.116794,0.984251 z m -8.038048,34.06601 v -0.5468 h 0.492125 q 1.421696,0 2.241905,-0.82021 0.820209,-0.87489 0.820209,-3.17148 v -20.5599 q 0,-2.077865 -0.87489,-2.843393 -0.87489,-0.820209 -2.187224,-0.820209 h -0.87489 v -0.546806 h 13.342067 v 24.879668 q 0,2.24191 0.820209,3.06212 0.874889,0.82021 2.241904,0.82021 h 0.546806 v 0.5468 z"
         style="font-size:54.6806px;fill:#f2f2f2"
         id="path1031" />
      <path
         d="m 111.36056,126.62909 q -3.88232,0 -6.72571,-1.36702 -2.84339,-1.42169 -4.42913,-4.70253 -1.585739,-3.33551 -1.585739,-9.0223 0,-5.9055 1.640419,-9.2957 1.64042,-3.390195 4.53849,-4.811891 2.89807,-1.421696 6.72571,-1.421696 5.46806,0 7.81933,1.74978 2.35126,1.749779 2.35126,4.265087 0,0.98425 -0.5468,2.13254 -0.49213,1.1483 -2.18723,1.9685 -1.64041,0.82021 -4.97593,0.82021 0,-4.15572 -0.2734,-6.39763 -0.27341,-2.241901 -0.87489,-3.116791 -0.54681,-0.87489 -1.58574,-0.87489 -1.25765,0 -1.91382,1.312335 -0.65617,1.257654 -0.92957,4.538486 -0.2734,3.22616 -0.2734,9.07698 0,5.52274 0.49212,8.69422 0.49213,3.11679 1.64042,4.48381 1.14829,1.31233 3.22615,1.31233 2.18723,0 3.82765,-1.80446 1.64041,-1.85914 2.07786,-6.67103 1.09361,0.21872 1.64042,1.09361 0.5468,0.82021 0.5468,1.91382 0,1.25766 -0.92957,2.67935 -0.87489,1.4217 -3.11679,2.46063 -2.18723,0.98425 -6.17891,0.98425 z"
         style="font-size:54.6806px;fill:#f2f2f2"
         id="path1033" />
      <path
         d="m 124.15573,126.08228 v -0.5468 h 0.49213 q 0.71084,0 1.42169,-0.21873 0.76553,-0.2734 1.31234,-0.98425 0.5468,-0.76552 0.5468,-2.29658 V 88.35267 q 0,-1.421696 -0.5468,-2.132544 -0.54681,-0.710848 -1.31234,-0.92957 -0.76553,-0.218722 -1.42169,-0.218722 h -0.49213 v -0.546806 h 13.23271 v 23.403292 q 0,1.20298 0,2.46063 0,1.25765 -0.0547,2.56999 l 8.96761,-11.2642 q 1.25766,-1.58574 1.25766,-2.515312 0,-1.038931 -1.36702,-1.421695 -1.36701,-0.437445 -4.37444,-0.437445 v -0.546806 h 12.68589 v 0.546806 q -1.58573,0 -2.73403,0.382764 -1.09361,0.328084 -2.2419,1.312334 -1.09361,0.929571 -2.62467,2.843394 l -2.84339,3.55424 8.63953,16.29482 q 0.87489,1.69509 1.36702,2.5153 0.54681,0.82021 0.87489,1.09361 0.38276,0.21873 0.87489,0.21873 h 0.10936 v 0.5468 h -1.09361 q -4.21041,0 -6.61635,-0.32808 -2.40595,-0.32808 -3.71829,-1.36702 -1.31233,-1.03893 -2.29658,-3.28083 l -3.82764,-8.58486 -0.98425,1.25766 v 8.20209 q 0,1.58574 0.60148,2.35126 0.65617,0.71085 1.4217,0.98425 0.82021,0.21873 1.31233,0.21873 h 0.54681 v 0.5468 z"
         style="font-size:54.6806px;fill:#f2f2f2"
         id="path1035" />
      <path
         d="m 170.79819,126.62909 q -6.83507,0 -10.22527,-3.937 -3.33551,-3.93701 -3.33551,-11.10017 0,-7.70996 3.39019,-11.646963 3.3902,-3.937004 9.51443,-3.937004 5.68678,0 8.96761,3.390198 3.28084,3.335519 3.28084,9.842509 v 1.25765 h -15.74801 q 0,5.68678 0.65617,9.07698 0.71084,3.33552 2.13254,4.81189 1.47637,1.47638 3.82764,1.47638 2.56999,0 4.10105,-1.80446 1.58573,-1.85914 1.85914,-6.72571 0.98425,0.21872 1.58573,0.92957 0.65617,0.71085 0.65617,1.80446 0,1.64042 -1.14829,3.17147 -1.14829,1.47638 -3.49956,2.46063 -2.35127,0.92957 -6.01487,0.92957 z m -4.15572,-16.67758 h 6.50699 q 0,-5.30402 -0.2734,-8.20209 -0.27341,-2.898075 -0.92957,-4.046368 -0.65617,-1.148293 -1.85914,-1.148293 -1.20298,0 -1.96851,1.148293 -0.76552,1.148293 -1.14829,4.046368 -0.32808,2.89807 -0.32808,8.20209 z"
         style="font-size:54.6806px;fill:#f2f2f2"
         id="path1037" />
      <path
         d="m 184.85107,126.08228 v -0.5468 h 0.21872 q 1.80446,0 2.51531,-0.76553 0.76552,-0.76553 0.76552,-2.95275 v -20.99735 q 0,-2.077867 -0.71084,-2.788714 -0.65617,-0.710848 -2.35127,-0.710848 h -0.21872 v -0.546806 h 12.6859 v 4.593168 h 0.10936 q 0.60148,-2.515305 2.35126,-3.937001 1.80446,-1.421696 4.97594,-1.421696 3.82764,0 5.79614,2.515308 2.02318,2.460629 2.02318,7.983369 v 15.20121 q 0,2.2419 0.60149,3.06211 0.60149,0.76553 2.24191,0.76553 h 0.21872 v 0.5468 H 203.60651 V 105.4677 q 0,-3.99169 -0.5468,-5.577424 -0.49213,-1.640418 -1.85915,-1.640418 -1.69509,0 -2.56998,2.405942 -0.82021,2.35127 -0.82021,6.34295 v 14.98249 q 0,2.07786 0.65616,2.84339 0.71085,0.71085 2.40595,0.71085 h 0.16404 v 0.5468 z"
         style="font-size:54.6806px;fill:#f2f2f2"
         id="path1039" />
      <path
         d="m 245.17946,126.78784 q -5.5739,0 -9.10168,-1.76389 -3.52778,-1.76389 -5.29167,-4.72723 -1.69333,-2.96333 -1.69333,-6.63222 0,-9.24279 10.79501,-11.99446 -2.54,-1.69333 -4.65667,-3.527776 -2.11667,-1.834445 -3.38667,-4.233336 -1.27,-2.39889 -1.27,-5.785559 0,-3.457225 1.48167,-6.42056 1.55222,-3.033891 4.79778,-4.868337 3.31611,-1.834446 8.60778,-1.834446 5.00945,0 8.18445,1.622779 3.175,1.552224 4.65667,4.233336 1.55222,2.610558 1.55222,5.78556 0,4.092225 -2.54,6.632227 -2.46944,2.540001 -7.26723,3.880558 3.10445,1.834445 5.71501,3.810004 2.68111,1.905 4.30389,4.65667 1.62278,2.75167 1.62278,6.985 0,6.70279 -4.30389,10.44223 -4.30389,3.73945 -12.20612,3.73945 z m 3.88056,-30.268355 q 0.98777,-1.622779 1.27,-4.586114 0.35277,-2.963335 0.35277,-5.644448 0,-5.432782 -1.27,-7.972783 -1.19944,-2.610558 -4.02167,-2.610558 -2.75166,0 -4.09222,2.046113 -1.27,2.046112 -1.27,5.573893 0,3.52778 1.19944,5.92667 1.19945,2.328335 3.24556,4.02167 2.04611,1.622778 4.58612,3.245557 z m -3.38667,29.562795 q 6.42056,0 6.42056,-8.11389 0,-4.16278 -1.55223,-6.91445 -1.55222,-2.82222 -4.09222,-4.79778 -2.54,-1.97556 -5.43278,-3.88056 -2.32834,3.73945 -2.32834,11.78279 0,5.99722 1.55223,8.96056 1.55222,2.96333 5.43278,2.96333 z"
         style="fill:#d31918;fill-opacity:1"
         id="path1041" />
      <path
         d="m 273.11947,126.08228 v -0.70555 h 1.05833 q 2.39889,0 4.09222,-0.84667 1.69334,-0.91722 1.69334,-4.23334 v -7.19667 H 264.1589 v -4.37445 l 16.43946,-33.020018 h 10.79501 v 32.596688 h 5.64444 v 4.79778 h -5.64444 v 7.19667 q 0,2.25778 0.77611,3.31612 0.77611,1.05833 2.04611,1.41111 1.27,0.35278 2.75167,0.35278 h 0.35278 v 0.70555 z m -7.97279,-17.78001 h 14.81668 V 92.074482 q 0,-3.668891 0,-7.337782 0,-3.739447 0.14111,-6.773338 -0.84667,1.834445 -2.11667,4.515558 -1.19944,2.681113 -2.11667,4.445003 z"
         style="fill:#d31918;fill-opacity:1"
         id="path1043" />
    </g>
    <path
       id="rect869"
       d="m 118.8206,26.458338 h 308.40528 v 6.496295 H 118.8206 l -6.53165,-6.496295 z"
       style="fill:#d31918;fill-opacity:1;stroke-width:0.348144;stroke-miterlimit:4;stroke-dasharray:none" />
    <path
       id="rect869-5"
       style="fill:#d31918;fill-opacity:1;stroke-width:0.382975;stroke-miterlimit:4;stroke-dasharray:none"
       d="M 63.499646,165.4829 H 444.60894 v 6.4963 H 63.499646 Z" />
    <path
       id="rect869-3"
       d="m 118.05818,95.320957 h 221.5396 l -6.53167,6.496303 H 118.05818 l -6.53165,-6.496303 z"
       style="fill:#d31918;fill-opacity:1;stroke-width:0.296267;stroke-miterlimit:4;stroke-dasharray:none" />
    <path
       id="path932"
       style="fill:#d31918;fill-opacity:1;stroke-width:0.0811658;stroke-miterlimit:4;stroke-dasharray:none"
       d="m 347.35269,95.321037 a 7.7957651,7.7957651 0 0 1 7.75808,7.795863 7.7957651,7.7957651 0 0 1 -3.2e-4,0.0713 15.591529,15.591529 0 0 1 -5.36218,11.69576 15.591529,15.591529 0 0 1 -10.22903,3.82487 v -2.03815 a 15.591529,15.591529 0 0 0 8.35331,-5.77737 7.7957651,7.7957651 0 0 1 -0.55785,0.0199 7.7957651,7.7957651 0 0 1 -7.79579,-7.79588 7.7957651,7.7957651 0 0 1 7.79579,-7.795873 7.7957651,7.7957651 0 0 1 0.0378,0 z" />
  </g>
</svg>
