<?xml version="1.0" encoding="UTF-8" standalone="no"?>
<svg
   xmlns:dc="http://purl.org/dc/elements/1.1/"
   xmlns:cc="http://creativecommons.org/ns#"
   xmlns:rdf="http://www.w3.org/1999/02/22-rdf-syntax-ns#"
   xmlns:svg="http://www.w3.org/2000/svg"
   xmlns="http://www.w3.org/2000/svg"
   xmlns:sodipodi="http://sodipodi.sourceforge.net/DTD/sodipodi-0.dtd"
   xmlns:inkscape="http://www.inkscape.org/namespaces/inkscape"
   width="750"
   height="750"
   viewBox="0 0 198.4375 198.43751"
   version="1.1"
   id="svg8"
   inkscape:version="1.0.2 (e86c870879, 2021-01-15)"
   sodipodi:docname="p0l1t1c1an_logo.svg"
   inkscape:export-filename="/home/p0l1t1c1an/p0l1t1c1an.github.io/assets/images/logo.png"
   inkscape:export-xdpi="96"
   inkscape:export-ydpi="96">
  <defs
     id="defs2">
    <rect
       x="7.7676512"
       y="7.1687824"
       width="21.466012"
       height="31.154477"
       id="rect159" />
    <rect
       x="6.2733626"
       y="10.692567"
       width="20.832374"
       height="12.980753"
       id="rect153" />
    <rect
       x="54.347441"
       y="126.66907"
       width="90.0536"
       height="33.98765"
       id="rect110" />
    <rect
       x="41.900714"
       y="44.895514"
       width="90.752989"
       height="99.809728"
       id="rect92" />
    <rect
       x="41.900715"
       y="44.895515"
       width="90.513612"
       height="49.716388"
       id="rect92-1" />
    <rect
       x="41.900715"
       y="44.895515"
       width="90.752991"
       height="99.809731"
       id="rect123" />
  </defs>
  <sodipodi:namedview
     id="base"
     pagecolor="#ffffff"
     bordercolor="#666666"
     borderopacity="1.0"
     inkscape:pageopacity="0.0"
     inkscape:pageshadow="2"
     inkscape:zoom="0.98994949"
     inkscape:cx="149.59601"
     inkscape:cy="404.39486"
     inkscape:document-units="mm"
     inkscape:current-layer="layer1"
     inkscape:document-rotation="0"
     showgrid="false"
     units="px"
     inkscape:window-width="1908"
     inkscape:window-height="1041"
     inkscape:window-x="6"
     inkscape:window-y="33"
     inkscape:window-maximized="0" />
  <metadata
     id="metadata5">
    <rdf:RDF>
      <cc:Work
         rdf:about="">
        <dc:format>image/svg+xml</dc:format>
        <dc:type
           rdf:resource="http://purl.org/dc/dcmitype/StillImage" />
        <dc:title></dc:title>
      </cc:Work>
    </rdf:RDF>
  </metadata>
  <g
     inkscape:label="Layer 1"
     inkscape:groupmode="layer"
     id="layer1">
    <path
       style="color:#000000;font-style:normal;font-variant:normal;font-weight:normal;font-stretch:normal;font-size:medium;line-height:normal;font-family:sans-serif;font-variant-ligatures:normal;font-variant-position:normal;font-variant-caps:normal;font-variant-numeric:normal;font-variant-alternates:normal;font-variant-east-asian:normal;font-feature-settings:normal;font-variation-settings:normal;text-indent:0;text-align:start;text-decoration:none;text-decoration-line:none;text-decoration-style:solid;text-decoration-color:#000000;letter-spacing:normal;word-spacing:normal;text-transform:none;writing-mode:lr-tb;direction:ltr;text-orientation:mixed;dominant-baseline:auto;baseline-shift:baseline;text-anchor:start;white-space:normal;shape-padding:0;shape-margin:0;inline-size:0;clip-rule:nonzero;display:inline;overflow:visible;visibility:visible;isolation:auto;mix-blend-mode:normal;color-interpolation:sRGB;color-interpolation-filters:linearRGB;solid-color:#000000;solid-opacity:1;vector-effect:none;fill:#2a6dd3;fill-opacity:1;fill-rule:nonzero;stroke-width:0.264999;stroke-linecap:butt;stroke-linejoin:miter;stroke-miterlimit:4;stroke-dasharray:none;stroke-dashoffset:0;stroke-opacity:1;color-rendering:auto;image-rendering:auto;shape-rendering:auto;text-rendering:auto;enable-background:accumulate;stop-color:#000000;stop-opacity:1;stroke:none;opacity:1"
       d="M 0,0 H 198.4375 V 198.4375 H 0 Z"
       id="rect833" />
    <g
       aria-label="Pc"
       transform="matrix(1.1165115,0,0,1.1285825,3.2976148,-20.927939)"
       id="text90"
       style="font-style:normal;font-variant:normal;font-weight:normal;font-stretch:normal;font-size:88.1944px;line-height:1.25;font-family:'Liberation Serif';-inkscape-font-specification:'Liberation Serif';white-space:pre;shape-inside:url(#rect92);fill:#000000;fill-opacity:1;stroke:none">
      <path
         d="m 78.84902,82.527564 q 0,-7.105506 -3.315903,-10.163026 -3.315902,-3.057521 -11.15349,-3.057521 h -4.22024 v 27.345431 h 4.478622 q 7.27776,0 10.722854,-3.315903 3.488157,-3.315902 3.488157,-10.808981 z M 60.159387,100.52818 v 19.2064 l 9.172562,1.16271 v 2.28238 H 45.000975 v -2.28238 l 6.847123,-1.16271 V 68.833317 l -7.406951,-1.119656 v -2.282374 h 21.790217 q 21.187326,0 21.187326,17.01015 0,8.871116 -5.382959,13.478929 -5.339895,4.607814 -15.37373,4.607814 z"
         style="fill:#f9f9f9"
         id="path220" />
      <path
         d="m 127.38178,120.72504 q -2.11012,1.55029 -5.8136,2.45463 -3.70347,0.86127 -7.5792,0.86127 -19.680101,0 -19.680101,-21.40264 0,-10.119964 4.995386,-15.545987 5.038445,-5.469086 14.383265,-5.469086 5.8136,0 12.70378,1.334974 v 11.282681 h -2.3685 l -1.85174,-7.148569 q -3.57428,-2.023992 -8.56967,-2.023992 -11.54106,0 -11.54106,17.569979 0,9.1295 3.48816,13.04829 3.53122,3.87573 10.89511,3.87573 6.28729,0 10.93817,-1.4211 z"
         style="fill:#f9f9f9"
         id="path222" />
    </g>
    <g
       aria-label="P0l1t1c1an
6.283"
       transform="matrix(1.2024325,0,0,1.2508383,-5.7240112,71.943929)"
       id="text90-2"
       style="font-style:normal;font-variant:normal;font-weight:normal;font-stretch:normal;font-size:15.7135px;line-height:1.25;font-family:'Liberation Serif';-inkscape-font-specification:'Liberation Serif';white-space:pre;shape-inside:url(#rect92-1);fill:#000000;fill-opacity:1;stroke:none">
      <path
         d="m 55.511848,52.271663 q 0,-1.392582 -0.649872,-1.991814 -0.649871,-0.599233 -2.185932,-0.599233 h -0.827109 v 5.359332 h 0.877748 q 1.426342,0 2.101534,-0.649871 0.683631,-0.649872 0.683631,-2.118414 z m -3.662913,3.527876 v 3.764192 l 1.797697,0.227877 v 0.447314 h -4.76854 v -0.447314 l 1.341943,-0.227877 V 49.587778 L 48.768374,49.36834 v -0.447314 h 4.270586 q 4.152427,0 4.152427,3.333758 0,1.738618 -1.054987,2.641686 -1.046547,0.903069 -3.013042,0.903069 z"
         style="font-size:17.2849px;text-align:center;text-anchor:middle;fill:#f9f9f9"
         id="path186" />
      <path
         d="m 65.867597,54.533555 q 0,5.874165 -3.713553,5.874165 -1.789257,0 -2.700766,-1.502301 -0.911508,-1.502301 -0.911508,-4.371864 0,-2.810485 0.911508,-4.295906 0.911509,-1.493861 2.768285,-1.493861 1.789257,0 2.717646,1.476982 0.928388,1.468541 0.928388,4.312785 z m -1.552941,0 q 0,-2.717646 -0.514833,-3.916111 -0.514833,-1.198464 -1.645779,-1.198464 -1.097186,0 -1.57826,1.130945 -0.481074,1.130946 -0.481074,3.98363 0,2.869563 0.489514,4.042708 0.489514,1.164706 1.56982,1.164706 1.114066,0 1.637339,-1.223785 0.523273,-1.232224 0.523273,-3.983629 z"
         style="font-size:17.2849px;text-align:center;text-anchor:middle;fill:#f9f9f9"
         id="path188" />
      <path
         d="m 69.62335,59.64813 1.358823,0.210997 v 0.379795 H 66.871945 V 59.859127 L 68.222328,59.64813 V 48.828187 L 66.871945,48.62563 v -0.379795 h 2.751405 z"
         style="font-size:17.2849px;text-align:center;text-anchor:middle;fill:#f9f9f9"
         id="path190" />
      <path
         d="m 76.62002,59.563731 2.31253,0.227877 v 0.447314 h -6.085162 v -0.447314 l 2.32097,-0.227877 v -9.233243 l -2.287211,0.81867 v -0.447315 l 3.299998,-1.873656 h 0.438875 z"
         style="font-size:17.2849px;text-align:center;text-anchor:middle;fill:#f9f9f9"
         id="path192" />
      <path
         d="m 82.789582,60.40772 q -0.81023,0 -1.215345,-0.481074 -0.396675,-0.481074 -0.396675,-1.350383 v -5.561889 h -1.038107 v -0.379795 l 1.054987,-0.329156 0.852429,-1.797697 h 0.531713 v 1.797697 h 1.814577 v 0.708951 h -1.814577 v 5.409971 q 0,0.548593 0.244757,0.82711 0.253197,0.278516 0.658312,0.278516 0.489514,0 1.190025,-0.135038 v 0.548593 q -0.295397,0.202558 -0.85243,0.329156 -0.557032,0.135038 -1.029666,0.135038 z"
         style="font-size:17.2849px;text-align:center;text-anchor:middle;fill:#f9f9f9"
         id="path194" />
      <path
         d="m 90.06477,59.563731 2.31253,0.227877 v 0.447314 h -6.085162 v -0.447314 l 2.32097,-0.227877 v -9.233243 l -2.287211,0.81867 v -0.447315 l 3.299998,-1.873656 h 0.438875 z"
         style="font-size:17.2849px;text-align:center;text-anchor:middle;fill:#f9f9f9"
         id="path196" />
      <path
         d="m 100.55556,59.757848 q -0.41356,0.303837 -1.139387,0.481074 -0.725831,0.168798 -1.485421,0.168798 -3.857031,0 -3.857031,-4.194627 0,-1.983374 0.979027,-3.046801 0.987468,-1.071866 2.818924,-1.071866 1.139386,0 2.489768,0.261636 v 2.211252 h -0.464193 l -0.362916,-1.401022 q -0.700511,-0.396675 -1.679538,-0.396675 -2.261892,0 -2.261892,3.443476 0,1.789258 0.683632,2.557288 0.692071,0.75959 2.135293,0.75959 1.232224,0 2.143734,-0.278516 z"
         style="font-size:17.2849px;text-align:center;text-anchor:middle;fill:#f9f9f9"
         id="path198" />
      <path
         d="m 106.37908,59.563731 2.31253,0.227877 v 0.447314 h -6.08516 v -0.447314 l 2.32097,-0.227877 v -9.233243 l -2.28721,0.81867 v -0.447315 l 3.3,-1.873656 h 0.43887 z"
         style="font-size:17.2849px;text-align:center;text-anchor:middle;fill:#f9f9f9"
         id="path200" />
      <path
         d="m 113.65427,52.128185 q 1.29974,0 1.90742,0.531714 0.61611,0.531713 0.61611,1.628899 v 5.359332 l 0.98747,0.210997 v 0.379795 h -2.1775 l -0.16035,-0.79335 q -0.96215,0.962148 -2.45601,0.962148 -2.03402,0 -2.03402,-2.36317 0,-0.79335 0.30384,-1.308183 0.31228,-0.523274 0.98747,-0.79335 0.67519,-0.278517 1.95805,-0.303836 l 1.19003,-0.03376 v -1.240664 q 0,-0.81867 -0.30384,-1.206905 -0.2954,-0.388235 -0.91995,-0.388235 -0.84399,0 -1.5445,0.396675 l -0.28695,0.987468 h -0.47264 v -1.730178 q 1.36726,-0.295397 2.40537,-0.295397 z m 1.12251,4.068029 -1.10563,0.03376 q -1.13094,0.0422 -1.53606,0.438875 -0.39667,0.396675 -0.39667,1.325063 0,1.485421 1.2069,1.485421 0.57391,0 0.98747,-0.126598 0.42199,-0.135039 0.84399,-0.337596 z"
         style="font-size:17.2849px;text-align:center;text-anchor:middle;fill:#f9f9f9"
         id="path202" />
      <path
         d="m 120.13611,52.946855 q 0.64987,-0.371355 1.38414,-0.607672 0.73427,-0.244757 1.22379,-0.244757 1.02966,0 1.55294,0.599232 0.52327,0.599233 0.52327,1.738618 v 5.215854 l 0.96215,0.210997 v 0.379795 h -3.41816 v -0.379795 l 1.05499,-0.210997 v -5.063936 q 0,-0.700511 -0.34604,-1.097186 -0.33759,-0.405115 -1.05498,-0.405115 -0.75959,0 -1.86522,0.244757 v 6.32148 l 1.07187,0.210997 v 0.379795 h -3.4266 v -0.379795 l 0.95371,-0.210997 v -6.751914 l -0.95371,-0.210998 v -0.379795 h 2.26189 z"
         style="font-size:17.2849px;text-align:center;text-anchor:middle;fill:#f9f9f9"
         id="path204" />
      <path
         d="m 75.83933,78.334052 q 0,1.763937 -0.894628,2.726085 -0.886189,0.953708 -2.565728,0.953708 -1.907416,0 -2.920203,-1.485421 -1.004347,-1.485421 -1.004347,-4.270586 0,-1.823017 0.531713,-3.14808 0.531713,-1.325063 1.485421,-2.017134 0.962148,-0.692072 2.219692,-0.692072 1.232224,0 2.456009,0.295397 v 1.949615 H 74.590226 L 74.29483,71.489299 q -0.278517,-0.151918 -0.751151,-0.261637 -0.472634,-0.118159 -0.852429,-0.118159 -1.232224,0 -1.924295,1.198465 -0.683632,1.190025 -0.751151,3.485676 1.375703,-0.725831 2.759845,-0.725831 1.493861,0 2.278771,0.84399 0.78491,0.835549 0.78491,2.422249 z m -3.494115,3.013042 q 1.021227,0 1.476981,-0.658312 0.455754,-0.666752 0.455754,-2.194372 0,-1.384143 -0.438874,-2.000255 -0.430435,-0.616112 -1.375703,-0.616112 -1.156265,0 -2.456009,0.421995 0,2.574167 0.582353,3.814831 0.582352,1.232225 1.755498,1.232225 z"
         style="font-size:17.2849px;text-align:center;text-anchor:middle;fill:#f9f9f9"
         id="path206" />
      <path
         d="m 79.536003,81.068577 q 0,0.413555 -0.295396,0.717391 -0.286956,0.303836 -0.725831,0.303836 -0.438874,0 -0.73427,-0.303836 -0.286957,-0.303836 -0.286957,-0.717391 0,-0.430434 0.295396,-0.725831 0.295397,-0.295396 0.725831,-0.295396 0.430435,0 0.725831,0.295396 0.295396,0.295397 0.295396,0.725831 z"
         style="font-size:17.2849px;text-align:center;text-anchor:middle;fill:#f9f9f9"
         id="path208" />
      <path
         d="m 88.364131,81.845047 h -6.929152 v -1.240664 l 1.56982,-1.426342 q 1.510741,-1.325063 2.219692,-2.143733 0.708951,-0.818669 1.012787,-1.687978 0.312276,-0.869309 0.312276,-1.991815 0,-1.097186 -0.497953,-1.671099 -0.497954,-0.573913 -1.6289,-0.573913 -0.447314,0 -0.919948,0.126599 -0.472634,0.118158 -0.835549,0.320716 l -0.295397,1.384142 h -0.557033 v -2.177492 q 1.536061,-0.362916 2.607927,-0.362916 1.856777,0 2.785165,0.776471 0.936828,0.76803 0.936828,2.177492 0,0.945268 -0.371355,1.789257 -0.362916,0.83555 -1.122506,1.671099 -0.75959,0.82711 -2.515088,2.320971 -0.751151,0.641432 -1.59514,1.409462 h 5.823526 z"
         style="font-size:17.2849px;text-align:center;text-anchor:middle;fill:#f9f9f9"
         id="path210" />
      <path
         d="m 96.955941,73.286996 q 0,0.928388 -0.455754,1.57826 -0.447314,0.641432 -1.215345,0.979027 0.962148,0.354476 1.485422,1.114066 0.531713,0.751151 0.531713,1.831457 0,1.60358 -0.903069,2.413809 -0.903068,0.81023 -2.810484,0.81023 -3.612274,0 -3.612274,-3.224039 0,-1.122506 0.540153,-1.856776 0.540153,-0.742711 1.460101,-1.088747 -0.73427,-0.337595 -1.198464,-0.979027 -0.455755,-0.641432 -0.455755,-1.57826 0,-1.401022 0.85243,-2.169053 0.860869,-0.76803 2.481328,-0.76803 1.56982,0 2.430689,0.76803 0.869309,0.759591 0.869309,2.169053 z m -1.173145,5.50281 q 0,-1.350383 -0.531713,-1.958055 -0.523273,-0.607672 -1.662659,-0.607672 -1.114066,0 -1.60358,0.582352 -0.489513,0.573913 -0.489513,1.983375 0,1.426342 0.497953,1.991815 0.497954,0.565473 1.59514,0.565473 1.122506,0 1.654219,-0.582353 0.540153,-0.590793 0.540153,-1.974935 z m -0.346035,-5.50281 q 0,-1.164705 -0.455755,-1.713298 -0.455754,-0.548593 -1.375702,-0.548593 -0.894629,0 -1.333503,0.531713 -0.430435,0.531713 -0.430435,1.730178 0,1.173145 0.421995,1.687978 0.421994,0.506394 1.341943,0.506394 0.945268,0 1.384142,-0.514833 0.447315,-0.523274 0.447315,-1.679539 z"
         style="font-size:17.2849px;text-align:center;text-anchor:middle;fill:#f9f9f9"
         id="path212" />
      <path
         d="m 105.92755,78.764486 q 0,1.527621 -1.04655,2.38849 -1.04654,0.860869 -2.9624,0.860869 -1.60358,0 -3.038361,-0.362915 L 98.7874,79.27088 h 0.557033 l 0.379795,1.5867 q 0.329152,0.185677 0.928392,0.320716 0.60767,0.135038 1.13094,0.135038 1.32507,0 1.95806,-0.607672 0.63299,-0.607673 0.63299,-2.025575 0,-1.114065 -0.58235,-1.687978 -0.58236,-0.582353 -1.80614,-0.641432 l -1.20691,-0.06752 v -0.692071 l 1.20691,-0.07596 q 0.95371,-0.05064 1.40946,-0.590793 0.45576,-0.540153 0.45576,-1.637339 0,-1.139386 -0.49796,-1.654219 -0.48951,-0.523274 -1.56982,-0.523274 -0.44731,0 -0.93683,0.126599 -0.48951,0.118158 -0.860865,0.320716 l -0.295397,1.384142 h -0.557032 v -2.177492 q 0.835549,-0.219437 1.443224,-0.286956 0.60767,-0.07596 1.2069,-0.07596 3.62916,0 3.62916,2.785165 0,1.173145 -0.64988,1.873656 -0.64143,0.692072 -1.82301,0.860869 1.53606,0.177238 2.26189,0.886189 0.72583,0.700511 0.72583,1.958055 z"
         style="font-size:17.2849px;text-align:center;text-anchor:middle;fill:#f9f9f9"
         id="path214" />
    </g>
    <g
       id="text151"
       style="font-style:normal;font-weight:normal;font-size:10.5833px;line-height:1.25;font-family:sans-serif;white-space:pre;shape-inside:url(#rect153);fill:#000000;fill-opacity:1;stroke:none" />
    <g
       aria-label="τ"
       transform="matrix(1.1225857,0,0,0.99999775,-2.5924842,-9.0213207)"
       id="text157"
       style="font-style:normal;font-weight:normal;font-size:10.5833px;line-height:1.25;font-family:sans-serif;white-space:pre;shape-inside:url(#rect159);fill:#000000;fill-opacity:1;stroke:none">
      <path
         d="M 9.2145215,16.446228 8.7514996,17.680953 H 8.2016611 l 0.2025721,-2.045014 h 6.8681578 v 0.810289 h -2.836009 v 6.192917 q 0,1.254018 1.003214,1.254018 0.395498,0 1.041799,-0.154341 v 0.627009 q -0.231511,0.192926 -0.762057,0.356913 -0.530545,0.173633 -1.01286,0.173633 -0.848873,0 -1.360127,-0.511254 -0.511253,-0.520899 -0.511253,-1.581991 v -6.356904 z"
         style="font-style:normal;font-variant:normal;font-weight:normal;font-stretch:normal;font-size:19.7556px;font-family:'Liberation Serif';-inkscape-font-specification:'Liberation Serif';fill:#f9f9f9"
         id="path182" />
    </g>
  </g>
</svg>
